# This file uses centimeters as units for non-parametric coordinates.

mtllib Seccion14A.mtl
g default
v 295.930206 1.676479 112.699936
v 295.977203 1.754056 112.840683
v 295.845673 1.798064 112.795486
v 295.788635 1.742129 112.660286
v 295.953827 2.428110 112.676750
v 295.843658 2.356543 112.678177
v 295.869354 2.327456 112.760384
v 295.989838 2.350546 112.772171
v 296.575165 2.281464 112.626205
v 296.481476 2.379271 112.590294
v 296.457672 2.350955 112.710274
v 296.475952 2.232754 112.753517
v 295.943207 2.245899 112.871300
v 295.816589 2.213742 112.790421
v 295.743683 2.232152 112.339989
v 295.810760 2.325324 112.437195
v 295.847748 2.247369 112.329109
v 295.798676 2.146201 112.233223
v 295.932495 1.882208 112.186058
v 295.989990 1.724015 112.214851
v 295.846710 1.776579 112.294594
v 295.802307 1.931460 112.249634
v 295.925934 1.675927 112.326866
v 295.928986 1.675322 112.502258
v 295.746307 1.684348 112.518227
v 295.811188 1.732918 112.406219
v 296.326294 1.675631 112.303871
v 296.326294 1.675631 112.502213
v 296.127960 1.675631 112.502213
v 296.124817 1.674136 112.304123
v 296.326294 1.675631 112.700546
v 296.319855 1.757256 112.832283
v 296.142151 1.749796 112.839340
v 296.127960 1.675631 112.700546
v 296.355957 2.453899 112.640533
v 296.130157 2.456511 112.688225
v 296.141785 2.352793 112.797180
v 296.340454 2.353225 112.748550
v 296.286774 2.399080 112.369263
v 296.143463 2.379945 112.388008
v 296.126312 2.461236 112.509277
v 296.329987 2.450720 112.499130
v 295.962891 2.364069 112.405556
v 295.820923 2.346767 112.534386
v 295.940765 2.446948 112.516945
v 296.461884 1.899822 112.679375
v 296.542328 2.077361 112.669456
v 296.451813 2.063597 112.801003
v 296.433899 1.925178 112.804001
v 296.524628 1.873969 112.303871
v 296.523865 2.071661 112.304520
v 296.532013 2.073936 112.493958
v 296.509949 1.880013 112.497551
v 296.484131 2.230639 112.341400
v 296.425507 2.347755 112.395164
v 296.472443 2.375342 112.478584
v 296.563751 2.278666 112.458092
v 295.929626 1.873969 112.898888
v 295.930420 2.072034 112.898003
v 295.797791 2.061100 112.829781
v 295.799408 1.914501 112.834091
v 296.326080 1.874130 112.898636
v 296.327850 2.072757 112.895905
v 296.127960 2.072306 112.898888
v 296.127960 1.873969 112.898888
v 295.747192 1.886635 112.363365
v 295.738220 2.076774 112.318588
v 295.791779 2.073341 112.208237
v 295.731293 1.873969 112.700546
v 295.731293 2.072307 112.700546
v 295.731293 2.072303 112.502213
v 295.730164 1.873428 112.502312
v 295.746124 2.258181 112.692917
v 295.735779 2.265446 112.503220
v 295.957611 2.170963 112.201309
v 295.930939 2.071057 112.141670
v 296.286407 2.203176 112.169464
v 296.324432 2.063691 112.113495
v 296.125793 2.069827 112.108345
v 296.141449 2.189635 112.182327
v 296.326294 1.873969 112.105530
v 296.318207 1.726837 112.160912
v 296.147491 1.717939 112.167145
v 296.124878 1.875409 112.136818
v 296.128357 2.262785 112.891068
v 296.155334 2.288329 112.280930
v 296.237366 2.307225 112.260925
v 296.452271 1.738372 112.503052
v 296.463593 1.736016 112.315041
v 296.019592 2.275524 112.299080
v 296.411926 1.763678 112.667534
v 296.470703 2.041800 112.156693
v 296.467010 1.882187 112.159370
v 296.350891 2.281806 112.282402
v 296.416260 2.156790 112.216568
v 296.449646 1.768605 112.182999
v 296.395569 1.799173 112.768181
v 296.339966 2.257542 112.860031
vt 0.429889 0.550647
vt 0.367050 0.574323
vt 0.389115 0.503928
vt 0.449670 0.474898
vt 0.060371 0.811026
vt 0.067842 0.867075
vt 0.032434 0.855203
vt 0.021297 0.791615
vt 0.630819 0.066177
vt 0.628690 0.021663
vt 0.673115 0.061895
vt 0.673065 0.126843
vt 0.107556 0.141476
vt 0.061924 0.161554
vt 0.069819 0.095020
vt 0.119092 0.066134
vt 0.225918 0.900179
vt 0.175979 0.872865
vt 0.225737 0.844105
vt 0.274794 0.861297
vt 0.840082 0.320177
vt 0.912286 0.294602
vt 0.889212 0.374156
vt 0.818043 0.392056
vt 0.594541 0.555740
vt 0.517113 0.553902
vt 0.513015 0.454017
vt 0.561388 0.492169
vt 0.598232 0.774651
vt 0.510734 0.770699
vt 0.513930 0.662479
vt 0.601366 0.664700
vt 0.423235 0.766746
vt 0.365232 0.761489
vt 0.364982 0.664304
vt 0.426431 0.658527
vt 0.022709 0.351712
vt 0.017511 0.233426
vt 0.063855 0.245602
vt 0.067200 0.349225
vt 0.182868 0.615798
vt 0.181377 0.693268
vt 0.124903 0.712027
vt 0.121769 0.600669
vt 0.181730 0.791063
vt 0.132033 0.872677
vt 0.129685 0.812178
vt 0.590367 0.279317
vt 0.616040 0.179785
vt 0.665699 0.222904
vt 0.644938 0.294308
vt 0.433217 0.211601
vt 0.464192 0.113685
vt 0.542872 0.148505
vt 0.513614 0.248064
vt 0.195904 0.498913
vt 0.168695 0.539068
vt 0.128975 0.518670
vt 0.139296 0.463294
vt 0.271437 0.127517
vt 0.184093 0.132521
vt 0.186202 0.055402
vt 0.250904 0.053166
vt 0.278761 0.341679
vt 0.191181 0.347084
vt 0.187661 0.239317
vt 0.275137 0.234664
vt 0.775677 0.572376
vt 0.761024 0.677605
vt 0.710289 0.677900
vt 0.724569 0.599014
vt 0.923990 0.554873
vt 0.928813 0.662857
vt 0.841779 0.669348
vt 0.837034 0.561098
vt 0.929371 0.763905
vt 0.921241 0.815302
vt 0.858850 0.815302
vt 0.846734 0.774350
vt 0.714977 0.298768
vt 0.755204 0.313817
vt 0.753643 0.392056
vt 0.723094 0.387172
vt 0.708138 0.117736
vt 0.767606 0.098887
vt 0.759367 0.206561
vt 0.710807 0.197488
vt 0.850392 0.103044
vt 0.917259 0.113871
vt 0.916892 0.207238
vt 0.845865 0.213796
vt 0.103631 0.243400
vt 0.838748 0.457196
vt 0.900735 0.482860
vt 0.280262 0.597189
vt 0.281119 0.675608
vt 0.232405 0.677464
vt 0.236893 0.633124
vt 0.079640 0.518823
vt 0.065299 0.464530
vt 0.642932 0.593445
vt 0.661439 0.680265
vt 0.508341 0.840090
vt 0.591099 0.849996
vt 0.058838 0.592873
vt 0.230546 0.751145
vt 0.046869 0.717443
vt 0.562977 0.350473
vt 0.492313 0.326238
vt 0.397167 0.105967
vt 0.373363 0.186154
vt 0.560763 0.036155
vt 0.224311 0.571203
vt 0.325008 0.145963
vt 0.329959 0.234869
vt 0.197201 0.406590
vt 0.257926 0.393893
vt 0.788084 0.485552
vt 0.982489 0.650727
vt 0.980747 0.570727
vt 0.773965 0.761353
vt 0.281119 0.775086
vt 0.783152 0.021663
vt 0.853104 0.028393
vt 0.734161 0.050302
vt 0.436430 0.815076
vt 0.438263 0.066963
vt 0.503036 0.046635
vt 0.029673 0.535436
vt 0.017511 0.600729
vt 0.661439 0.773642
vt 0.903519 0.042053
vt 0.627424 0.396600
vt 0.609550 0.354390
vt 0.673115 0.350779
vt 0.122879 0.419969
vt 0.109783 0.355221
vt 0.959053 0.507345
vt 0.968148 0.734613
vt 0.816103 0.807084
vt 0.302986 0.072483
vt 0.026708 0.136629
vt 0.738687 0.512016
vt 0.414736 0.289443
vt 0.364982 0.249184
vt 0.696462 0.482133
vt 0.747108 0.454017
vt 0.560594 0.410692
vt 0.256929 0.526456
vt 0.740077 0.975104
vt 0.696462 0.978337
vt 0.704656 0.867832
vt 0.740077 0.858627
vt 0.649582 0.845357
vt 0.722739 0.716564
vt 0.329959 0.330508
vt 0.097836 0.021663
vt 0.056222 0.075546
vt 0.070254 0.409570
vn -0.202094 -0.925373 0.320691
vn -0.190105 -0.675516 0.712417
vn -0.559079 -0.570979 0.601177
vn -0.675952 -0.654254 0.339176
vn -0.317889 0.879970 0.352988
vn -0.587222 0.741527 0.324512
vn -0.454783 0.639376 0.619977
vn -0.230390 0.710070 0.665372
vn 0.923444 0.294914 0.245512
vn 0.615911 0.770514 0.164203
vn 0.533922 0.627226 0.567023
vn 0.683407 0.276603 0.675607
vn -0.287505 0.416008 0.862716
vn -0.230390 0.710070 0.665372
vn -0.454783 0.639376 0.619977
vn -0.641927 0.352515 0.680928
vn -0.743589 0.506593 -0.436394
vn -0.505917 0.763226 -0.401914
vn -0.222908 0.727826 -0.648523
vn -0.542516 0.469613 -0.696520
vn -0.389884 -0.268789 -0.880763
vn -0.324188 -0.633476 -0.702574
vn -0.647724 -0.476817 -0.594222
vn -0.699370 -0.277788 -0.658571
vn -0.309599 -0.895797 -0.318899
vn -0.131803 -0.991225 -0.010000
vn -0.707396 -0.705696 -0.039800
vn -0.658678 -0.645578 -0.386487
vn 0.210003 -0.965416 -0.154503
vn 0.263792 -0.963870 0.036999
vn -0.000300 -0.999997 0.002300
vn -0.023100 -0.982879 -0.182796
vn 0.343311 -0.898729 0.272809
vn 0.373790 -0.643283 0.668182
vn 0.011400 -0.692820 0.721021
vn 0.003000 -0.967433 0.253109
vn 0.289213 0.912941 0.287913
vn -0.017700 0.914191 0.404896
vn 0.013299 0.730056 0.683258
vn 0.297593 0.690684 0.659085
vn 0.112298 0.812185 -0.572490
vn -0.133701 0.802408 -0.581606
vn -0.066902 0.964833 -0.254209
vn 0.218691 0.942963 -0.250990
vn -0.249595 0.764386 -0.594489
vn -0.505917 0.763226 -0.401914
vn -0.629716 0.770920 -0.095602
vn -0.343591 0.913777 -0.216695
vn 0.911512 -0.308304 0.272204
vn 0.941110 -0.156302 0.299803
vn 0.750995 -0.040000 0.659095
vn 0.795301 -0.230700 0.560601
vn 0.969867 -0.198193 -0.141695
vn 0.945521 0.126203 -0.300106
vn 0.991543 -0.121505 -0.045602
vn 0.956013 -0.267204 0.121002
vn 0.742889 0.411894 -0.527692
vn 0.452189 0.684283 -0.572086
vn 0.563812 0.767917 -0.304007
vn 0.898303 0.335001 -0.284301
vn -0.263599 -0.256899 0.929795
vn -0.267503 0.087101 0.959612
vn -0.697012 0.095202 0.710712
vn -0.686694 -0.195398 0.700194
vn 0.363505 -0.247503 0.898113
vn 0.344696 0.056899 0.936988
vn 0.007700 0.054599 0.998479
vn 0.007400 -0.227796 0.973681
vn -0.913931 -0.229708 -0.334611
vn -0.954797 -0.005900 -0.297199
vn -0.663367 0.062697 -0.745663
vn -0.699370 -0.277788 -0.658571
vn -0.930371 -0.202394 0.305690
vn -0.961692 0.057200 0.268098
vn -0.999642 0.014001 -0.022801
vn -0.986942 -0.139806 -0.080003
vn -0.862528 0.402613 0.306510
vn -0.587222 0.741527 0.324512
vn -0.629716 0.770920 -0.095602
vn -0.905088 0.423594 -0.037200
vn -0.210189 0.622266 -0.754059
vn -0.301913 0.149506 -0.941540
vn -0.663367 0.062697 -0.745663
vn -0.542516 0.469613 -0.696520
vn 0.147196 0.582383 -0.799477
vn 0.172797 0.243496 -0.954385
vn -0.118695 0.195691 -0.973456
vn -0.127696 0.592381 -0.795474
vn 0.122600 -0.158600 -0.979702
vn 0.156402 -0.690308 -0.706409
vn -0.114403 -0.665015 -0.738016
vn -0.163207 -0.189408 -0.968240
vn 0.013299 0.730056 0.683258
vn -0.230390 0.710070 0.665372
vn -0.287505 0.416008 0.862716
vn 0.002900 0.444610 0.895720
vn 0.011400 -0.692820 0.721021
vn -0.190105 -0.675516 0.712417
vn -0.202094 -0.925373 0.320691
vn 0.003000 -0.967433 0.253109
vn -0.930371 -0.202394 0.305690
vn -0.986942 -0.139806 -0.080003
vn -0.707396 -0.705696 -0.039800
vn -0.675952 -0.654254 0.339176
vn 0.147196 0.582383 -0.799477
vn -0.127696 0.592381 -0.795474
vn -0.183501 0.716703 -0.672803
vn 0.010100 0.717000 -0.697000
vn 0.563812 0.767917 -0.304007
vn 0.615911 0.770514 0.164203
vn 0.923444 0.294914 0.245512
vn 0.898303 0.335001 -0.284301
vn -0.961692 0.057200 0.268098
vn -0.862528 0.402613 0.306510
vn -0.905088 0.423594 -0.037200
vn -0.999642 0.014001 -0.022801
vn 0.172797 0.243496 -0.954385
vn 0.122600 -0.158600 -0.979702
vn -0.163207 -0.189408 -0.968240
vn -0.118695 0.195691 -0.973456
vn -0.114403 -0.665015 -0.738016
vn -0.324188 -0.633476 -0.702574
vn -0.389884 -0.268789 -0.880763
vn -0.163207 -0.189408 -0.968240
vn -0.324188 -0.633476 -0.702574
vn -0.114403 -0.665015 -0.738016
vn -0.023100 -0.982879 -0.182796
vn -0.309599 -0.895797 -0.318899
vn 0.749404 -0.649603 0.128101
vn 0.263792 -0.963870 0.036999
vn 0.210003 -0.965416 -0.154503
vn 0.712701 -0.690901 -0.121300
vn -0.131803 -0.991225 -0.010000
vn -0.000300 -0.999997 0.002300
vn 0.003000 -0.967433 0.253109
vn -0.202094 -0.925373 0.320691
vn 0.615911 0.770514 0.164203
vn 0.563812 0.767917 -0.304007
vn 0.218691 0.942963 -0.250990
vn 0.289213 0.912941 0.287913
vn -0.133701 0.802408 -0.581606
vn -0.183501 0.716703 -0.672803
vn -0.186012 0.722347 -0.666044
vn -0.249595 0.764386 -0.594489
vn -0.183501 0.716703 -0.672803
vn -0.133701 0.802408 -0.581606
vn 0.112298 0.812185 -0.572490
vn 0.010100 0.717000 -0.697000
vn -0.017700 0.914191 0.404896
vn -0.066902 0.964833 -0.254209
vn -0.343591 0.913777 -0.216695
vn -0.317889 0.879970 0.352988
vn -0.118695 0.195691 -0.973456
vn -0.301913 0.149506 -0.941540
vn -0.210189 0.622266 -0.754059
vn -0.127696 0.592381 -0.795474
vn 0.785419 -0.562214 0.258906
vn 0.749404 -0.649603 0.128101
vn 0.956013 -0.267204 0.121002
vn 0.911512 -0.308304 0.272204
vn 0.668088 0.208796 -0.714187
vn 0.945521 0.126203 -0.300106
vn 0.969867 -0.198193 -0.141695
vn 0.690517 -0.162104 -0.704917
vn 0.941110 -0.156302 0.299803
vn 0.991543 -0.121505 -0.045602
vn 0.898303 0.335001 -0.284301
vn 0.923444 0.294914 0.245512
vn 0.010100 0.717000 -0.697000
vn 0.112298 0.812185 -0.572490
vn 0.452189 0.684283 -0.572086
vn 0.404582 0.633571 -0.659470
vn -0.190105 -0.675516 0.712417
vn 0.011400 -0.692820 0.721021
vn 0.007400 -0.227796 0.973681
vn -0.263599 -0.256899 0.929795
vn 0.750995 -0.040000 0.659095
vn 0.344696 0.056899 0.936988
vn 0.363505 -0.247503 0.898113
vn 0.795301 -0.230700 0.560601
vn -0.267503 0.087101 0.959612
vn 0.007700 0.054599 0.998479
vn 0.002900 0.444610 0.895720
vn -0.287505 0.416008 0.862716
vn -0.658678 -0.645578 -0.386487
vn -0.707396 -0.705696 -0.039800
vn -0.986942 -0.139806 -0.080003
vn -0.913931 -0.229708 -0.334611
vn -0.697012 0.095202 0.710712
vn -0.961692 0.057200 0.268098
vn -0.930371 -0.202394 0.305690
vn -0.686694 -0.195398 0.700194
vn -0.954797 -0.005900 -0.297199
vn -0.999642 0.014001 -0.022801
vn -0.905088 0.423594 -0.037200
vn -0.743589 0.506593 -0.436394
vn -0.186012 0.722347 -0.666044
vn -0.183501 0.716703 -0.672803
vn -0.127696 0.592381 -0.795474
vn -0.210189 0.622266 -0.754059
vn 0.172797 0.243496 -0.954385
vn 0.668088 0.208796 -0.714187
vn 0.690517 -0.162104 -0.704917
vn 0.122600 -0.158600 -0.979702
vn 0.668088 0.208796 -0.714187
vn 0.172797 0.243496 -0.954385
vn 0.147196 0.582383 -0.799477
vn 0.539083 0.524784 -0.658780
vn -0.301913 0.149506 -0.941540
vn -0.118695 0.195691 -0.973456
vn -0.163207 -0.189408 -0.968240
vn -0.389884 -0.268789 -0.880763
vn 0.263792 -0.963870 0.036999
vn 0.749404 -0.649603 0.128101
vn 0.785419 -0.562214 0.258906
vn 0.343311 -0.898729 0.272809
vn 0.945521 0.126203 -0.300106
vn 0.668088 0.208796 -0.714187
vn 0.539083 0.524784 -0.658780
vn 0.742889 0.411894 -0.527692
vn 0.533922 0.627226 0.567023
vn 0.615911 0.770514 0.164203
vn 0.289213 0.912941 0.287913
vn 0.297593 0.690684 0.659085
vn 0.156402 -0.690308 -0.706409
vn 0.210003 -0.965416 -0.154503
vn -0.023100 -0.982879 -0.182796
vn -0.114403 -0.665015 -0.738016
vn 0.608375 -0.552377 -0.569877
vn 0.156402 -0.690308 -0.706409
vn 0.122600 -0.158600 -0.979702
vn 0.690517 -0.162104 -0.704917
vn 0.373790 -0.643283 0.668182
vn 0.786679 -0.454888 0.417389
vn 0.795301 -0.230700 0.560601
vn 0.363505 -0.247503 0.898113
vn -0.707396 -0.705696 -0.039800
vn -0.131803 -0.991225 -0.010000
vn -0.202094 -0.925373 0.320691
vn -0.675952 -0.654254 0.339176
vn 0.344696 0.056899 0.936988
vn 0.750995 -0.040000 0.659095
vn 0.683407 0.276603 0.675607
vn 0.342386 0.403583 0.848465
vn -0.675952 -0.654254 0.339176
vn -0.559079 -0.570979 0.601177
vn -0.686694 -0.195398 0.700194
vn -0.930371 -0.202394 0.305690
vn -0.961692 0.057200 0.268098
vn -0.697012 0.095202 0.710712
vn -0.641927 0.352515 0.680928
vn -0.862528 0.402613 0.306510
vn -0.629716 0.770920 -0.095602
vn -0.505917 0.763226 -0.401914
vn -0.743589 0.506593 -0.436394
vn -0.905088 0.423594 -0.037200
vn -0.559079 -0.570979 0.601177
vn -0.190105 -0.675516 0.712417
vn -0.263599 -0.256899 0.929795
vn -0.686694 -0.195398 0.700194
vn 0.263792 -0.963870 0.036999
vn 0.343311 -0.898729 0.272809
vn 0.003000 -0.967433 0.253109
vn -0.000300 -0.999997 0.002300
vn 0.945521 0.126203 -0.300106
vn 0.742889 0.411894 -0.527692
vn 0.898303 0.335001 -0.284301
vn 0.991543 -0.121505 -0.045602
vn 0.013299 0.730056 0.683258
vn -0.017700 0.914191 0.404896
vn -0.317889 0.879970 0.352988
vn -0.230390 0.710070 0.665372
vn -0.647724 -0.476817 -0.594222
vn -0.658678 -0.645578 -0.386487
vn -0.913931 -0.229708 -0.334611
vn -0.699370 -0.277788 -0.658571
vn 0.712701 -0.690901 -0.121300
vn 0.608375 -0.552377 -0.569877
vn 0.690517 -0.162104 -0.704917
vn 0.969867 -0.198193 -0.141695
vn -0.629716 0.770920 -0.095602
vn -0.587222 0.741527 0.324512
vn -0.317889 0.879970 0.352988
vn -0.343591 0.913777 -0.216695
vn -0.000300 -0.999997 0.002300
vn -0.131803 -0.991225 -0.010000
vn -0.309599 -0.895797 -0.318899
vn -0.023100 -0.982879 -0.182796
vn 0.344696 0.056899 0.936988
vn 0.342386 0.403583 0.848465
vn 0.002900 0.444610 0.895720
vn 0.007700 0.054599 0.998479
vn -0.542516 0.469613 -0.696520
vn -0.222908 0.727826 -0.648523
vn -0.186012 0.722347 -0.666044
vn -0.210189 0.622266 -0.754059
vn -0.647724 -0.476817 -0.594222
vn -0.324188 -0.633476 -0.702574
vn -0.309599 -0.895797 -0.318899
vn -0.658678 -0.645578 -0.386487
vn 0.343311 -0.898729 0.272809
vn 0.785419 -0.562214 0.258906
vn 0.786679 -0.454888 0.417389
vn 0.373790 -0.643283 0.668182
vn 0.786679 -0.454888 0.417389
vn 0.785419 -0.562214 0.258906
vn 0.911512 -0.308304 0.272204
vn 0.795301 -0.230700 0.560601
vn -0.505917 0.763226 -0.401914
vn -0.249595 0.764386 -0.594489
vn -0.186012 0.722347 -0.666044
vn -0.222908 0.727826 -0.648523
vn 0.742889 0.411894 -0.527692
vn 0.539083 0.524784 -0.658780
vn 0.404582 0.633571 -0.659470
vn 0.452189 0.684283 -0.572086
vn 0.010100 0.717000 -0.697000
vn 0.404582 0.633571 -0.659470
vn 0.539083 0.524784 -0.658780
vn 0.147196 0.582383 -0.799477
vn 0.342386 0.403583 0.848465
vn 0.297593 0.690684 0.659085
vn 0.013299 0.730056 0.683258
vn 0.002900 0.444610 0.895720
vn 0.156402 -0.690308 -0.706409
vn 0.608375 -0.552377 -0.569877
vn 0.712701 -0.690901 -0.121300
vn 0.210003 -0.965416 -0.154503
vn 0.452189 0.684283 -0.572086
vn 0.112298 0.812185 -0.572490
vn 0.218691 0.942963 -0.250990
vn 0.563812 0.767917 -0.304007
vn -0.663367 0.062697 -0.745663
vn -0.954797 -0.005900 -0.297199
vn -0.743589 0.506593 -0.436394
vn -0.542516 0.469613 -0.696520
vn 0.991543 -0.121505 -0.045602
vn 0.941110 -0.156302 0.299803
vn 0.911512 -0.308304 0.272204
vn 0.956013 -0.267204 0.121002
vn -0.999642 0.014001 -0.022801
vn -0.954797 -0.005900 -0.297199
vn -0.913931 -0.229708 -0.334611
vn -0.986942 -0.139806 -0.080003
vn 0.007700 0.054599 0.998479
vn -0.267503 0.087101 0.959612
vn -0.263599 -0.256899 0.929795
vn 0.007400 -0.227796 0.973681
vn -0.663367 0.062697 -0.745663
vn -0.301913 0.149506 -0.941540
vn -0.389884 -0.268789 -0.880763
vn -0.699370 -0.277788 -0.658571
vn -0.133701 0.802408 -0.581606
vn -0.249595 0.764386 -0.594489
vn -0.343591 0.913777 -0.216695
vn -0.066902 0.964833 -0.254209
vn -0.066902 0.964833 -0.254209
vn -0.017700 0.914191 0.404896
vn 0.289213 0.912941 0.287913
vn 0.218691 0.942963 -0.250990
vn 0.373790 -0.643283 0.668182
vn 0.363505 -0.247503 0.898113
vn 0.007400 -0.227796 0.973681
vn 0.011400 -0.692820 0.721021
vn 0.750995 -0.040000 0.659095
vn 0.941110 -0.156302 0.299803
vn 0.923444 0.294914 0.245512
vn 0.683407 0.276603 0.675607
vn -0.862528 0.402613 0.306510
vn -0.641927 0.352515 0.680928
vn -0.454783 0.639376 0.619977
vn -0.587222 0.741527 0.324512
vn 0.969867 -0.198193 -0.141695
vn 0.956013 -0.267204 0.121002
vn 0.749404 -0.649603 0.128101
vn 0.712701 -0.690901 -0.121300
vn -0.697012 0.095202 0.710712
vn -0.267503 0.087101 0.959612
vn -0.287505 0.416008 0.862716
vn -0.641927 0.352515 0.680928
vn 0.342386 0.403583 0.848465
vn 0.683407 0.276603 0.675607
vn 0.533922 0.627226 0.567023
vn 0.297593 0.690684 0.659085
s off
g Gold
usemtl blinn5SG
f 1/1/1 2/2/2 3/3/3 4/4/4
f 5/5/5 6/6/6 7/7/7 8/8/8
f 9/9/9 10/10/10 11/11/11 12/12/12
f 13/13/13 8/14/14 7/15/15 14/16/16
f 15/17/17 16/18/18 17/19/19 18/20/20
f 19/21/21 20/22/22 21/23/23 22/24/24
f 23/25/25 24/26/26 25/27/27 26/28/28
f 27/29/29 28/30/30 29/31/31 30/32/32
f 31/33/33 32/34/34 33/35/35 34/36/36
f 35/37/37 36/38/38 37/39/39 38/40/40
f 39/41/41 40/42/42 41/43/43 42/44/44
f 43/45/45 16/18/46 44/46/47 45/47/48
f 46/48/49 47/49/50 48/50/51 49/51/52
f 50/52/53 51/53/54 52/54/55 53/55/56
f 54/56/57 55/57/58 56/58/59 57/59/60
f 58/60/61 59/61/62 60/62/63 61/63/64
f 62/64/65 63/65/66 64/66/67 65/67/68
f 66/68/69 67/69/70 68/70/71 22/71/72
f 69/72/73 70/73/74 71/74/75 72/75/76
f 73/76/77 6/77/78 44/78/79 74/79/80
f 75/80/81 76/81/82 68/82/83 18/83/84
f 77/84/85 78/85/86 79/86/87 80/87/88
f 81/88/89 82/89/90 83/90/91 84/91/92
f 37/39/93 8/14/94 13/13/95 85/92/96
f 33/35/97 2/2/98 1/1/99 34/36/100
f 69/72/101 72/75/102 25/93/103 4/94/104
f 77/95/105 80/96/106 86/97/107 87/98/108
f 56/58/109 10/99/110 9/100/111 57/59/112
f 70/73/113 73/76/114 74/79/115 71/74/116
f 78/85/117 81/88/118 84/91/119 79/86/120
f 83/90/121 20/22/122 19/21/123 84/91/124
f 20/101/125 83/102/126 30/32/127 23/25/128
f 88/103/129 28/30/130 27/29/131 89/104/132
f 24/26/133 29/31/134 34/36/135 1/1/136
f 10/99/137 56/58/138 42/44/139 35/105/140
f 40/42/141 86/97/142 90/106/143 43/45/144
f 86/97/145 40/42/146 39/41/147 87/98/148
f 36/107/149 41/43/150 45/47/151 5/5/152
f 79/86/153 76/81/154 75/80/155 80/87/156
f 91/108/157 88/109/158 53/55/159 46/48/160
f 92/110/161 51/53/162 50/52/163 93/111/164
f 47/49/165 52/54/166 57/112/167 9/9/168
f 87/98/169 39/41/170 55/57/171 94/113/172
f 2/114/173 33/115/174 65/67/175 58/60/176
f 48/116/177 63/65/178 62/64/179 49/117/180
f 59/61/181 64/66/182 85/92/183 13/13/184
f 26/118/185 25/93/186 72/75/187 66/68/188
f 60/119/189 70/73/190 69/72/191 61/120/192
f 67/69/193 71/74/194 74/79/195 15/121/196
f 90/106/197 86/97/198 80/96/199 75/122/200
f 78/85/201 92/123/202 93/124/203 81/88/204
f 92/123/205 78/85/206 77/84/207 95/125/208
f 76/81/209 79/86/210 84/91/211 19/21/212
f 28/30/213 88/103/214 91/126/215 31/33/216
f 51/53/217 92/110/218 95/127/219 54/128/220
f 11/129/221 10/99/222 35/105/223 38/130/224
f 82/131/225 27/29/226 30/32/227 83/102/228
f 96/132/229 82/89/230 81/88/231 93/124/232
f 32/133/233 97/134/234 49/51/235 62/135/236
f 25/27/237 24/26/238 1/1/239 4/4/240
f 63/65/241 48/116/242 12/136/243 98/137/244
f 4/94/245 3/138/246 61/120/247 69/72/248
f 70/73/249 60/119/250 14/139/251 73/76/252
f 44/78/253 16/140/254 15/121/255 74/79/256
f 3/141/257 2/114/258 58/60/259 61/63/260
f 28/30/261 31/33/262 34/36/263 29/31/264
f 51/53/265 54/128/266 57/112/267 52/54/268
f 37/39/269 36/38/270 5/142/271 8/14/272
f 21/143/273 26/118/274 66/68/275 22/71/276
f 89/144/277 96/145/278 93/111/279 50/52/280
f 44/46/281 6/6/282 5/5/283 45/47/284
f 29/31/285 24/26/286 23/25/287 30/32/288
f 63/65/289 98/137/290 85/92/291 64/66/292
f 18/20/293 17/19/294 90/106/295 75/122/296
f 21/143/297 20/146/298 23/147/299 26/118/300
f 31/148/301 91/108/302 97/134/303 32/133/304
f 97/134/305 91/108/306 46/48/307 49/51/308
f 16/18/309 43/45/310 90/106/311 17/19/312
f 54/56/313 95/149/314 94/113/315 55/57/316
f 87/98/317 94/113/318 95/149/319 77/95/320
f 98/150/321 38/151/322 37/152/323 85/153/324
f 82/131/325 96/154/326 89/104/327 27/29/328
f 55/57/329 39/41/330 42/44/331 56/58/332
f 68/70/333 67/69/334 15/121/335 18/155/336
f 52/54/337 47/49/338 46/48/339 53/55/340
f 71/74/341 67/69/342 66/68/343 72/75/344
f 64/66/345 59/61/346 58/60/347 65/67/348
f 68/82/349 76/81/350 19/21/351 22/24/352
f 40/42/353 43/45/354 45/47/355 41/43/356
f 41/43/357 36/107/358 35/105/359 42/44/360
f 32/156/361 62/64/362 65/67/363 33/115/364
f 48/50/365 47/49/366 9/9/367 12/12/368
f 73/157/369 14/16/370 7/15/371 6/158/372
f 50/52/373 53/55/374 88/109/375 89/144/376
f 60/62/377 59/61/378 13/13/379 14/16/380
f 98/137/381 12/136/382 11/159/383 38/40/384
